<svg width="20" height="20" viewBox="0 0 20 20" fill="none" xmlns="http://www.w3.org/2000/svg">
<path d="M19.951 4.31145C19.8679 3.89137 19.6805 3.49434 19.407 3.16055C19.3515 3.09047 19.2934 3.02812 19.2299 2.96488C18.7434 2.47582 18.0667 2.19531 17.3732 2.19531H2.62672C1.92551 2.19531 1.26602 2.46875 0.769727 2.96516C0.706914 3.02781 0.648672 3.09078 0.591016 3.16309C0.31875 3.49547 0.132148 3.89195 0.0510156 4.31262C0.0171094 4.47781 0 4.64898 0 4.82215V15.1791C0 15.5394 0.0732031 15.8902 0.21832 16.2238C0.343906 16.52 0.534453 16.8008 0.76957 17.0358C0.828789 17.0948 0.887617 17.1491 0.95043 17.2021C1.42051 17.5914 2.01574 17.8057 2.62672 17.8057H17.3732C17.9881 17.8057 18.5828 17.5906 19.0516 17.1979C19.1143 17.1471 19.1723 17.0939 19.2304 17.0358C19.4577 16.8088 19.6383 16.5479 19.7682 16.2603L19.7853 16.2193C19.9277 15.892 20 15.5423 20 15.1791V4.82215C20 4.65125 19.9835 4.47895 19.951 4.31145ZM1.36027 3.87172C1.39742 3.81734 1.44484 3.76152 1.50535 3.70055C1.8057 3.40035 2.20402 3.23516 2.62668 3.23516H17.3732C17.7995 3.23516 18.198 3.40062 18.495 3.70113C18.5463 3.75297 18.5953 3.81051 18.638 3.86801L18.7508 4.01957L10.8797 10.8796C10.637 11.0923 10.3246 11.2094 9.99988 11.2094C9.67836 11.2094 9.36621 11.0926 9.12066 10.8798L1.25742 4.02152L1.36027 3.87172ZM1.04512 15.2705C1.04086 15.2423 1.03988 15.211 1.03988 15.1791V5.0366L7.14809 10.3652L1.10152 15.6371L1.04512 15.2705ZM18.1601 16.5567C17.9237 16.6931 17.6514 16.7655 17.3732 16.7655H2.62672C2.34832 16.7655 2.07617 16.6931 1.83992 16.5567L1.59273 16.4134L7.84023 10.9689L8.52492 11.5645C8.93563 11.9211 9.45937 12.1176 9.99996 12.1176C10.5425 12.1176 11.0671 11.9211 11.4776 11.5645L12.162 10.9687L18.4073 16.4137L18.1601 16.5567ZM18.9598 15.1791C18.9598 15.2104 18.9593 15.2414 18.9553 15.2691L18.9012 15.6391L12.852 10.368L18.9598 5.03918V15.1791Z" fill="#FFB81C"/>
</svg>
