<svg width="20" height="20" viewBox="0 0 20 20" fill="none" xmlns="http://www.w3.org/2000/svg">
<path d="M13.0676 12.1561C15.976 12.1561 18.3337 9.80799 18.3337 6.91152C18.3337 4.01505 15.976 1.66699 13.0676 1.66699C10.1592 1.66699 7.80158 4.01505 7.80158 6.91152C7.80158 8.25314 8.41391 9.22891 8.41391 9.22891L2.04567 15.5711C1.75991 15.8557 1.35985 16.5956 2.04567 17.2786L2.78046 18.0104C3.0662 18.2543 3.78465 18.5958 4.37249 18.0104L5.22975 17.1567C6.08702 18.0104 7.06674 17.5226 7.43414 17.0347C8.04648 16.1809 7.31168 15.3272 7.31168 15.3272L7.55661 15.0832C8.73224 16.2541 9.76099 15.5711 10.1284 15.0832C10.7407 14.2295 10.1284 13.3757 10.1284 13.3757C9.88349 12.8878 9.39366 12.8878 10.0059 12.2781L10.7407 11.5462C11.3286 12.0341 12.5369 12.1561 13.0676 12.1561Z" stroke="#FFB81C" stroke-linejoin="round"/>
<path d="M14.9044 6.91152C14.9044 7.92192 14.082 8.741 13.0675 8.741C12.0529 8.741 11.2305 7.92192 11.2305 6.91152C11.2305 5.90112 12.0529 5.08203 13.0675 5.08203C14.082 5.08203 14.9044 5.90112 14.9044 6.91152Z" stroke="#FFB81C"/>
</svg>
