<svg width="20" height="20" viewBox="0 0 20 20" fill="none" xmlns="http://www.w3.org/2000/svg">
<path d="M10.1 10.65C10.0416 10.6417 9.96663 10.6417 9.89996 10.65C8.43329 10.6 7.2666 9.4 7.2666 7.92498C7.2666 6.41665 8.48329 5.19165 9.99996 5.19165C11.5083 5.19165 12.7333 6.41665 12.7333 7.92498C12.725 9.4 11.5666 10.6 10.1 10.65Z" stroke="#FFB81C" stroke-linecap="round" stroke-linejoin="round"/>
<path d="M15.6161 16.1498C14.1328 17.5081 12.1661 18.3331 9.99947 18.3331C7.83281 18.3331 5.86615 17.5081 4.38281 16.1498C4.46615 15.3665 4.96615 14.5998 5.85781 13.9998C8.14115 12.4831 11.8745 12.4831 14.1411 13.9998C15.0328 14.5998 15.5328 15.3665 15.6161 16.1498Z" stroke="#FFB81C" stroke-linecap="round" stroke-linejoin="round"/>
<path d="M9.99935 18.3337C14.6017 18.3337 18.3327 14.6027 18.3327 10.0003C18.3327 5.39795 14.6017 1.66699 9.99935 1.66699C5.39697 1.66699 1.66602 5.39795 1.66602 10.0003C1.66602 14.6027 5.39697 18.3337 9.99935 18.3337Z" stroke="#FFB81C" stroke-linecap="round" stroke-linejoin="round"/>
</svg>
