<svg width="40" height="40" viewBox="0 0 40 40" fill="none" xmlns="http://www.w3.org/2000/svg">
<circle cx="20" cy="20" r="20" fill="#00AEF3"/>
<g clip-path="url(#clip0_277_396)">
<path fill-rule="evenodd" clip-rule="evenodd" d="M29.425 22.1231C29.5696 21.4716 29.6449 20.797 29.6449 20.1038C29.6449 14.9105 25.3751 10.699 20.1058 10.699C19.5508 10.699 19.0063 10.7465 18.4748 10.8369C17.6223 10.3072 16.6134 10 15.5327 10C12.4765 10 10 12.4413 10 15.4553C10 16.4615 10.2775 17.4028 10.7596 18.2142C10.6338 18.824 10.5668 19.4569 10.5668 20.1038C10.5668 25.2994 14.8377 29.5097 20.1058 29.5097C20.7032 29.5097 21.2865 29.4552 21.8532 29.352C22.6329 29.7647 23.5219 30 24.4685 30C27.5235 30 30 27.5575 30 24.5459C30 23.6753 29.793 22.8534 29.425 22.1231ZM24.9988 24.5992C24.5579 25.2159 23.9064 25.7028 23.0597 26.0482C22.2237 26.3914 21.2218 26.5664 20.08 26.5664C18.71 26.5664 17.5611 26.3288 16.6639 25.8593C16.023 25.5185 15.4951 25.0571 15.0941 24.4844C14.6884 23.9095 14.4838 23.338 14.4838 22.785C14.4838 22.4419 14.6178 22.1428 14.8812 21.8982C15.1423 21.6548 15.4774 21.5331 15.8772 21.5331C16.2041 21.5331 16.4875 21.6293 16.7168 21.8206C16.9367 22.0049 17.1249 22.2773 17.2766 22.6262C17.4459 23.0088 17.6293 23.331 17.8234 23.5826C18.0115 23.8283 18.2808 24.0335 18.6242 24.1946C18.9699 24.3546 19.4367 24.4381 20.0094 24.4381C20.7984 24.4381 21.4452 24.2711 21.9309 23.9442C22.4071 23.6255 22.6376 23.2406 22.6376 22.77C22.6376 22.4002 22.5165 22.108 22.2695 21.8785C22.0085 21.6397 21.6663 21.4542 21.2512 21.3244C20.8173 21.1923 20.2293 21.0474 19.5014 20.8967C18.5101 20.688 17.6693 20.4411 17.0014 20.1594C16.317 19.8731 15.7655 19.4754 15.3622 18.9781C14.953 18.4716 14.7448 17.8375 14.7448 17.0921C14.7448 16.3827 14.9624 15.7416 15.3928 15.1898C15.8184 14.6415 16.4417 14.2126 17.2448 13.9216C18.0362 13.633 18.977 13.4869 20.0435 13.4869C20.8949 13.4869 21.6439 13.5843 22.2695 13.7767C22.8986 13.9692 23.4278 14.2288 23.8441 14.5499C24.2639 14.8745 24.5767 15.2188 24.7719 15.5782C24.9694 15.941 25.0706 16.3015 25.0706 16.6504C25.0706 16.9866 24.9389 17.2926 24.679 17.5581C24.4179 17.827 24.0875 17.9627 23.6994 17.9627C23.3467 17.9627 23.0691 17.8769 22.8786 17.71C22.6999 17.5535 22.5141 17.31 22.3083 16.9623C22.0708 16.5171 21.7827 16.1659 21.4523 15.9178C21.1312 15.6767 20.5962 15.5561 19.8589 15.5561C19.1769 15.5561 18.6195 15.6906 18.2067 15.9584C17.8093 16.2146 17.6152 16.5102 17.6152 16.8602C17.6152 17.0735 17.6776 17.2532 17.8069 17.4063C17.941 17.5709 18.1326 17.7123 18.3749 17.8328C18.6254 17.9569 18.8841 18.0566 19.1428 18.1261C19.4073 18.1992 19.8518 18.307 20.4621 18.4461C21.2347 18.6084 21.9438 18.7927 22.5706 18.9909C23.2067 19.1903 23.7547 19.436 24.2039 19.7247C24.6602 20.018 25.0212 20.3936 25.2787 20.8433C25.5362 21.2966 25.6667 21.853 25.6667 22.501C25.6667 23.2754 25.441 23.9813 24.9988 24.5992Z" fill="white"/>
</g>
<defs>
<clipPath id="clip0_277_396">
<rect width="20" height="20" fill="white" transform="translate(10 10)"/>
</clipPath>
</defs>
</svg>
