<svg width="40" height="40" viewBox="0 0 40 40" fill="none" xmlns="http://www.w3.org/2000/svg">
<circle cx="20" cy="20" r="20" fill="#2E9942"/>
<g clip-path="url(#clip0_277_409)">
<path d="M13.5833 12.667H17.25L19.0833 17.2503L16.7917 18.6253C17.7734 20.6159 19.3844 22.2269 21.375 23.2087L22.75 20.917L27.3333 22.7503V26.417C27.3333 26.9032 27.1402 27.3695 26.7964 27.7134C26.4525 28.0572 25.9862 28.2503 25.5 28.2503C21.9243 28.033 18.5518 26.5146 16.0188 23.9816C13.4857 21.4485 11.9673 18.076 11.75 14.5003C11.75 14.0141 11.9432 13.5478 12.287 13.204C12.6308 12.8601 13.0971 12.667 13.5833 12.667Z" stroke="white" stroke-width="2" stroke-linecap="round" stroke-linejoin="round"/>
<path d="M22.75 15.417C23.2362 15.417 23.7025 15.6101 24.0464 15.954C24.3902 16.2978 24.5833 16.7641 24.5833 17.2503" stroke="white" stroke-width="2" stroke-linecap="round" stroke-linejoin="round"/>
<path d="M22.75 11.75C24.2087 11.75 25.6076 12.3295 26.6391 13.3609C27.6705 14.3924 28.25 15.7913 28.25 17.25" stroke="white" stroke-width="2" stroke-linecap="round" stroke-linejoin="round"/>
</g>
<defs>
<clipPath id="clip0_277_409">
<rect width="22" height="22" fill="white" transform="translate(9 9)"/>
</clipPath>
</defs>
</svg>
