<svg width="16" height="16" viewBox="0 0 16 16" fill="none" xmlns="http://www.w3.org/2000/svg">
<path d="M4.94434 8.12402L4.80469 7.97852L1.05371 4.07031C0.771588 3.77623 0.590709 3.41444 0.526367 3.03125L0.505859 2.86621L0.5 2.69824V0.841797L0.506836 0.780273C0.519757 0.719135 0.551971 0.659132 0.604492 0.609375C0.675547 0.542196 0.777294 0.500055 0.888672 0.5H15.1113C15.2227 0.500055 15.3245 0.542197 15.3955 0.609375C15.4656 0.675793 15.4999 0.760152 15.5 0.841797V2.6709C15.5001 2.93319 15.4455 3.19355 15.3389 3.4375C15.2322 3.68156 15.0751 3.90517 14.875 4.09473L11.2119 7.56445L11.0557 7.71191V13.4736L11.042 13.5625C11.033 13.5916 11.02 13.6205 11.002 13.6475C10.9662 13.7007 10.9121 13.7456 10.8447 13.7764L10.7832 13.7998L5.46387 15.4805C5.40227 15.4999 5.33559 15.5045 5.27051 15.4951C5.20553 15.4857 5.14582 15.462 5.0957 15.4277C5.04566 15.3935 5.00771 15.3505 4.98242 15.3037C4.95729 15.2572 4.94439 15.2075 4.94434 15.1582V8.12402Z" fill="black" stroke="#FFF7F2"/>
</svg>
