<svg width="22" height="22" viewBox="0 0 22 22" fill="none" xmlns="http://www.w3.org/2000/svg">
<path d="M16.5 1.47387C18.1722 2.43932 19.5608 3.82794 20.5263 5.50015C21.4918 7.17236 22 9.06925 22 11.0001C22 12.9311 21.4917 14.8279 20.5262 16.5001C19.5608 18.1723 18.1721 19.5609 16.4999 20.5264C14.8276 21.4918 12.9307 22 10.9998 22C9.06891 22 7.17202 21.4917 5.49982 20.5262C3.82762 19.5607 2.43902 18.1721 1.4736 16.4998C0.508178 14.8276 -4.90486e-05 12.9307 3.55042e-09 10.9998L0.00550013 10.6434C0.0671035 8.74371 0.619902 6.89239 1.61 5.26994C2.6001 3.64748 3.99372 2.30926 5.65498 1.38574C7.31624 0.462222 9.18846 -0.0150818 11.0891 0.000363268C12.9898 0.0158083 14.854 0.523475 16.5 1.47387ZM11 4.39985C10.7083 4.39985 10.4285 4.51574 10.2222 4.72203C10.0159 4.92832 9.9 5.20811 9.9 5.49984C9.02479 5.49984 8.18542 5.84752 7.56655 6.46638C6.94768 7.08525 6.6 7.92461 6.6 8.79982C6.6 9.67502 6.94768 10.5144 7.56655 11.1333C8.18542 11.7521 9.02479 12.0998 9.9 12.0998V14.2998C9.71762 14.3095 9.53561 14.2747 9.36966 14.1985C9.20371 14.1222 9.05879 14.0067 8.9474 13.862L8.8726 13.7509C8.7221 13.5082 8.48311 13.3335 8.20615 13.2638C7.9292 13.1941 7.636 13.2349 7.38855 13.3775C7.1411 13.52 6.95881 13.7533 6.88021 14.0278C6.80162 14.3024 6.83288 14.5968 6.9674 14.8487C7.24816 15.3356 7.64864 15.7427 8.13088 16.0315C8.61311 16.3203 9.1611 16.4811 9.7229 16.4987H9.9C9.89977 16.7683 9.99856 17.0286 10.1776 17.2302C10.3567 17.4317 10.6035 17.5605 10.8713 17.5921L11 17.5998C11.2917 17.5998 11.5715 17.4839 11.7778 17.2776C11.9841 17.0713 12.1 16.7915 12.1 16.4998L12.2936 16.4943C13.1512 16.4447 13.9556 16.0627 14.536 15.4294C15.1164 14.7962 15.427 13.9616 15.4018 13.1029C15.3766 12.2443 15.0175 11.4294 14.401 10.8313C13.7845 10.2331 12.959 9.89898 12.1 9.89981V7.69983C12.4938 7.68663 12.8381 7.85382 13.0526 8.13762L13.1274 8.24872C13.2779 8.49143 13.5169 8.6661 13.7938 8.73579C14.0708 8.80547 14.364 8.76472 14.6115 8.62214C14.8589 8.47955 15.0412 8.24633 15.1198 7.97177C15.1984 7.69721 15.1671 7.40285 15.0326 7.15093C14.752 6.6638 14.3516 6.25643 13.8693 5.96748C13.3871 5.67852 12.839 5.51755 12.2771 5.49984H12.1C12.1 5.20811 11.9841 4.92832 11.7778 4.72203C11.5715 4.51574 11.2917 4.39985 11 4.39985ZM12.1 12.0998C12.3917 12.0998 12.6715 12.2157 12.8778 12.422C13.0841 12.6283 13.2 12.908 13.2 13.1998C13.2 13.4915 13.0841 13.7713 12.8778 13.9776C12.6715 14.1839 12.3917 14.2998 12.1 14.2998V12.0998ZM9.9 7.69983V9.89981C9.60826 9.89981 9.32847 9.78392 9.12218 9.57763C8.91589 9.37134 8.8 9.09155 8.8 8.79982C8.8 8.50808 8.91589 8.22829 9.12218 8.02201C9.32847 7.81572 9.60826 7.69983 9.9 7.69983Z" fill="white"/>
</svg>
