<svg width="22" height="22" viewBox="0 0 22 22" fill="none" xmlns="http://www.w3.org/2000/svg">
<g clip-path="url(#clip0_739_14841)">
<path d="M14.6667 1.83301C14.8912 1.83304 15.1079 1.91547 15.2757 2.06466C15.4435 2.21386 15.5506 2.41944 15.5769 2.64242L15.5833 2.74967V3.66634H16.5C17.2014 3.6663 17.8764 3.93431 18.3867 4.41552C18.8971 4.89673 19.2043 5.55477 19.2454 6.25501L19.25 6.41634V17.4163C19.25 18.1178 18.982 18.7927 18.5008 19.3031C18.0196 19.8134 17.3616 20.1206 16.6613 20.1618L16.5 20.1663H5.5C4.79856 20.1664 4.12361 19.8984 3.61326 19.4172C3.10291 18.936 2.79573 18.2779 2.75458 17.5777L2.75 17.4163V6.41634C2.74996 5.7149 3.01796 5.03995 3.49918 4.5296C3.98039 4.01925 4.63843 3.71208 5.33867 3.67092L5.5 3.66634H6.41667V2.74967C6.41693 2.51603 6.50639 2.29131 6.66678 2.12142C6.82717 1.95153 7.04637 1.84929 7.27961 1.8356C7.51285 1.82191 7.74251 1.89779 7.92168 2.04775C8.10085 2.19771 8.21599 2.41042 8.24358 2.64242L8.25 2.74967V3.66634H13.75V2.74967C13.75 2.50656 13.8466 2.2734 14.0185 2.10149C14.1904 1.92958 14.4236 1.83301 14.6667 1.83301ZM17.4167 8.24967H4.58333V17.0726C4.58333 17.7188 4.93717 18.2514 5.39275 18.3248L5.5 18.333H16.5C16.9703 18.333 17.358 17.8472 17.4103 17.2193L17.4167 17.0726V8.24967Z" fill="white"/>
<path d="M11 11C11.2245 11 11.4412 11.0825 11.609 11.2317C11.7768 11.3809 11.884 11.5864 11.9103 11.8094L11.9167 11.9167V14.6667C11.9164 14.9003 11.8269 15.125 11.6666 15.2949C11.5062 15.4648 11.287 15.567 11.0537 15.5807C10.8205 15.5944 10.5908 15.5185 10.4117 15.3686C10.2325 15.2186 10.1173 15.0059 10.0898 14.7739L10.0833 14.6667V12.8333C9.84969 12.8331 9.62497 12.7436 9.45508 12.5832C9.28519 12.4228 9.18295 12.2036 9.16926 11.9704C9.15557 11.7371 9.23145 11.5075 9.38141 11.3283C9.53137 11.1492 9.74408 11.034 9.97608 11.0064L10.0833 11H11Z" fill="white"/>
</g>
<defs>
<clipPath id="clip0_739_14841">
<rect width="22" height="22" fill="white"/>
</clipPath>
</defs>
</svg>
