<svg width="20" height="20" viewBox="0 0 20 20" fill="none" xmlns="http://www.w3.org/2000/svg">
<path d="M12.6473 2.08125C12.6741 2.19198 12.7267 2.29482 12.8007 2.3814C12.8748 2.46798 12.9682 2.53585 13.0735 2.57951C13.1787 2.62316 13.2928 2.64136 13.4064 2.63263C13.52 2.6239 13.6299 2.58848 13.7273 2.52925C16.1663 1.04425 18.9573 3.83425 17.4722 6.27325C17.413 6.37051 17.3776 6.48038 17.3688 6.59392C17.36 6.70746 17.3781 6.82148 17.4216 6.9267C17.4652 7.03192 17.533 7.12539 17.6194 7.19951C17.7059 7.27362 17.8086 7.3263 17.9193 7.35325C20.6943 8.02625 20.6943 11.9733 17.9193 12.6473C17.8085 12.6741 17.7057 12.7267 17.6191 12.8007C17.5325 12.8748 17.4646 12.9682 17.421 13.0735C17.3773 13.1787 17.3591 13.2928 17.3679 13.4064C17.3766 13.52 17.412 13.6299 17.4713 13.7273C18.9563 16.1663 16.1663 18.9573 13.7273 17.4722C13.63 17.413 13.5201 17.3776 13.4066 17.3688C13.293 17.36 13.179 17.3781 13.0738 17.4216C12.9686 17.4652 12.8751 17.533 12.801 17.6194C12.7269 17.7059 12.6742 17.8086 12.6473 17.9193C11.9742 20.6943 8.02725 20.6943 7.35325 17.9193C7.32642 17.8085 7.27384 17.7057 7.19977 17.6191C7.12571 17.5325 7.03226 17.4646 6.92702 17.421C6.82178 17.3773 6.70772 17.3591 6.59412 17.3679C6.48052 17.3766 6.37058 17.412 6.27325 17.4713C3.83425 18.9563 1.04325 16.1663 2.52825 13.7273C2.58748 13.63 2.62294 13.5201 2.63173 13.4066C2.64052 13.293 2.62241 13.179 2.57886 13.0738C2.5353 12.9686 2.46755 12.8751 2.38108 12.801C2.29462 12.7269 2.1919 12.6742 2.08125 12.6473C-0.69375 11.9742 -0.69375 8.02725 2.08125 7.35325C2.19198 7.32642 2.29482 7.27384 2.3814 7.19977C2.46798 7.12571 2.53585 7.03226 2.57951 6.92702C2.62316 6.82178 2.64136 6.70772 2.63263 6.59412C2.6239 6.48052 2.58848 6.37058 2.52925 6.27325C1.04425 3.83425 3.83425 1.04325 6.27325 2.52825C6.37042 2.58793 6.48033 2.62375 6.59401 2.63277C6.70768 2.64179 6.82187 2.62375 6.92723 2.58015C7.03259 2.53654 7.12613 2.46859 7.20018 2.38188C7.27423 2.29516 7.32668 2.19214 7.35325 2.08125C8.02625 -0.69375 11.9733 -0.69375 12.6473 2.08125ZM10.0002 7.00025C9.2046 7.00025 8.44154 7.31632 7.87893 7.87893C7.31632 8.44154 7.00025 9.2046 7.00025 10.0002C7.00025 10.7959 7.31632 11.559 7.87893 12.1216C8.44154 12.6842 9.2046 13.0002 10.0002 13.0002C10.7959 13.0002 11.559 12.6842 12.1216 12.1216C12.6842 11.559 13.0002 10.7959 13.0002 10.0002C13.0002 9.2046 12.6842 8.44154 12.1216 7.87893C11.559 7.31632 10.7959 7.00025 10.0002 7.00025Z" fill="white"/>
</svg>
