<svg width="23" height="23" viewBox="0 0 23 23" fill="none" xmlns="http://www.w3.org/2000/svg">
<g clip-path="url(#clip0_635_76)">
<path d="M17.2581 22.9884C15.3261 22.9884 13.4316 22.9884 11.4996 22.9884C11.4996 22.8876 11.4996 22.7911 11.4996 22.6954C11.4996 21.6729 11.5011 20.6504 11.4989 19.6286C11.4975 18.8519 11.0257 18.3747 10.2585 18.3726C9.54822 18.3704 8.83795 18.3704 8.12841 18.3726C7.37276 18.3747 6.90526 18.8439 6.90238 19.6119C6.89805 20.6344 6.90094 21.6569 6.90094 22.6787C6.90094 22.7759 6.90094 22.8731 6.90094 22.9782C6.80945 22.9876 6.74822 22.9993 6.68771 22.9993C4.67434 23 2.66025 23.0014 0.646872 22.9993C0.275173 22.9985 0.0446614 22.818 0.00504224 22.5141C-0.04106 22.1602 0.191612 21.8716 0.551066 21.8506C0.737636 21.8397 0.924927 21.8484 1.14247 21.8484C1.14247 21.72 1.14247 21.6149 1.14247 21.509C1.14247 15.854 1.14247 10.1997 1.14247 4.54472C1.14247 3.74629 1.4443 3.36122 2.20859 3.18355C6.71292 2.1371 11.2173 1.09211 15.7209 0.0456678C16.6098 -0.16101 17.2574 0.348796 17.2574 1.27196C17.2588 8.42882 17.2581 15.5857 17.2581 22.7418C17.2581 22.8129 17.2581 22.8839 17.2581 22.9884ZM5.73541 6.79425C5.55533 6.79425 5.37596 6.78917 5.19587 6.7957C4.82849 6.80875 4.60591 7.02486 4.59798 7.38818C4.58934 7.75875 4.59006 8.13004 4.59798 8.50061C4.60591 8.86683 4.82561 9.08874 5.19083 9.09744C5.55893 9.10614 5.92775 9.10614 6.29656 9.09744C6.6517 9.08946 6.87788 8.88569 6.89445 8.53252C6.91318 8.14455 6.91246 7.7544 6.89517 7.3657C6.87932 7.00963 6.65674 6.80803 6.30233 6.79497C6.11287 6.78845 5.92414 6.79425 5.73541 6.79425ZM9.20317 9.09744C9.20317 9.09816 9.20317 9.09889 9.20317 9.09962C9.38326 9.09962 9.56262 9.10469 9.74271 9.09889C10.1115 9.08656 10.3334 8.88206 10.3485 8.51221C10.3637 8.13294 10.3644 7.75149 10.3478 7.37295C10.3327 7.01543 10.1115 6.80658 9.76 6.79787C9.38254 6.78845 9.00507 6.78845 8.62761 6.7986C8.28977 6.8073 8.06286 7.02413 8.05277 7.35554C8.04053 7.75294 8.03981 8.1518 8.05349 8.54992C8.0643 8.86901 8.28905 9.08076 8.61032 9.09744C8.80698 9.10542 9.00507 9.09744 9.20317 9.09744ZM12.6594 9.09816C12.6594 9.09889 12.6594 9.09889 12.6594 9.09962C12.8395 9.09962 13.0189 9.10469 13.1989 9.09816C13.5548 9.08584 13.7824 8.88714 13.7983 8.5347C13.8163 8.13729 13.817 7.73772 13.7954 7.34104C13.7781 7.01035 13.5584 6.8073 13.2342 6.7986C12.8388 6.78772 12.4433 6.78772 12.0478 6.80005C11.741 6.8102 11.5169 7.02631 11.5054 7.33161C11.4903 7.73844 11.4903 8.146 11.5047 8.55282C11.5155 8.87046 11.7424 9.08076 12.0651 9.09599C12.2639 9.10542 12.462 9.09816 12.6594 9.09816ZM5.75126 12.5725C5.75126 12.5733 5.75126 12.574 5.75126 12.5747C5.93135 12.5747 6.11071 12.5798 6.2908 12.574C6.64881 12.5624 6.87644 12.3651 6.89301 12.0134C6.91174 11.616 6.91174 11.2172 6.89157 10.8198C6.875 10.4883 6.65674 10.2831 6.3333 10.2737C5.93783 10.2621 5.54236 10.2621 5.14689 10.2744C4.82921 10.2846 4.60879 10.5079 4.59942 10.8299C4.58718 11.2186 4.58862 11.608 4.5987 11.9967C4.60735 12.3339 4.82633 12.5537 5.15841 12.5704C5.35579 12.5805 5.55388 12.5725 5.75126 12.5725ZM9.183 12.5725C9.183 12.5733 9.183 12.5733 9.183 12.574C9.37173 12.574 9.56046 12.5798 9.74919 12.5725C10.1043 12.5602 10.3298 12.3593 10.3464 12.0062C10.3644 11.6182 10.3644 11.228 10.3471 10.8393C10.3312 10.484 10.1079 10.278 9.75351 10.2708C9.37605 10.2621 8.99859 10.2614 8.62113 10.2722C8.28545 10.2817 8.06214 10.5021 8.05205 10.8357C8.04053 11.2244 8.04125 11.6138 8.05205 12.0025C8.06142 12.3376 8.28328 12.5544 8.61753 12.5704C8.80482 12.5805 8.99427 12.5725 9.183 12.5725ZM12.6443 12.5718C12.6443 12.5725 12.6443 12.5733 12.6443 12.574C12.833 12.574 13.0217 12.5798 13.2105 12.5725C13.5534 12.5595 13.7788 12.3651 13.7954 12.0243C13.8156 11.6182 13.8163 11.2099 13.7932 10.8038C13.7745 10.476 13.5512 10.2802 13.2227 10.2715C12.8366 10.2621 12.4498 10.2606 12.0637 10.273C11.7316 10.2831 11.5119 10.5079 11.5032 10.8444C11.4932 11.2331 11.4924 11.6225 11.504 12.0112C11.514 12.3332 11.733 12.5508 12.0507 12.5689C12.2481 12.5805 12.4469 12.5718 12.6443 12.5718ZM5.74694 16.0469C5.74694 16.0476 5.74694 16.0483 5.74694 16.0491C5.92702 16.0491 6.10639 16.0541 6.28648 16.0483C6.65602 16.0367 6.88077 15.833 6.89589 15.4653C6.91174 15.086 6.91174 14.7053 6.89589 14.326C6.88077 13.9671 6.6625 13.7553 6.31169 13.7466C5.92558 13.7372 5.53876 13.7365 5.15265 13.7488C4.83282 13.7589 4.61095 13.9794 4.60014 14.2999C4.58718 14.6973 4.58718 15.0962 4.60014 15.4943C4.61095 15.8141 4.83354 16.0288 5.15337 16.0454C5.35075 16.0556 5.54884 16.0469 5.74694 16.0469ZM9.22118 13.743C9.22118 13.7437 9.22118 13.7437 9.22118 13.7444C9.02308 13.7444 8.82571 13.7379 8.62833 13.7459C8.27968 13.7604 8.05926 13.9794 8.05061 14.3304C8.04125 14.701 8.04269 15.0722 8.04989 15.4428C8.05709 15.8119 8.2732 16.0367 8.63625 16.0462C9.00435 16.0556 9.37317 16.0549 9.74199 16.0469C10.1108 16.0389 10.3334 15.8308 10.3485 15.4617C10.3644 15.0911 10.3622 14.7198 10.35 14.3492C10.337 13.9642 10.1158 13.7553 9.73335 13.7437C9.56262 13.7394 9.3919 13.743 9.22118 13.743ZM11.5018 14.8699C11.5011 14.8699 11.5011 14.8699 11.5004 14.8699C11.5004 15.0512 11.4975 15.2318 11.5011 15.4131C11.5083 15.8177 11.7172 16.0389 12.1127 16.0476C12.4721 16.0556 12.8316 16.0549 13.191 16.0476C13.5606 16.0396 13.7846 15.833 13.8004 15.4646C13.8163 15.0853 13.8163 14.7046 13.8004 14.3253C13.7853 13.9663 13.5663 13.7553 13.2162 13.7466C12.8301 13.7372 12.4433 13.7365 12.0572 13.7488C11.7374 13.7589 11.5227 13.9801 11.504 14.3006C11.4932 14.4899 11.5018 14.6799 11.5018 14.8699Z" fill="white"/>
<path d="M18.42 4.13721C18.5094 4.17637 18.5821 4.20465 18.6513 4.23946C19.471 4.64991 20.2872 5.0669 21.1098 5.47155C21.6263 5.72536 21.8604 6.12857 21.8597 6.70654C21.8546 11.6364 21.8568 16.5662 21.8568 21.4953C21.8568 21.6019 21.8568 21.7085 21.8568 21.8484C22.0722 21.8484 22.2681 21.8383 22.4619 21.8506C22.7781 21.8716 22.9971 22.1109 23 22.4184C23.0029 22.7208 22.7997 22.9848 22.5008 22.987C21.1458 22.9986 19.7909 22.992 18.4207 22.992C18.42 16.7047 18.42 10.434 18.42 4.13721Z" fill="white"/>
<path d="M8.06286 19.538C8.82211 19.538 9.56406 19.538 10.3298 19.538C10.3298 20.6845 10.3298 21.8245 10.3298 22.9819C9.57559 22.9819 8.82715 22.9819 8.06286 22.9819C8.06286 21.8397 8.06286 20.7048 8.06286 19.538Z" fill="white"/>
</g>
<defs>
<clipPath id="clip0_635_76">
<rect width="23" height="23" fill="white"/>
</clipPath>
</defs>
</svg>
