<svg width="24" height="17" viewBox="0 0 24 17" fill="none" xmlns="http://www.w3.org/2000/svg">
<g clip-path="url(#clip0_739_15012)">
<path d="M18.333 2C19.3055 2 20.2383 2.38634 20.926 3.07404C21.6137 3.76174 22 4.69445 22 5.667V14.333C22 15.3055 21.6137 16.2383 20.926 16.926C20.2383 17.6137 19.3055 18 18.333 18H9.667C8.69445 18 7.76174 17.6137 7.07404 16.926C6.38634 16.2383 6 15.3055 6 14.333V5.667C6 4.69445 6.38634 3.76174 7.07404 3.07404C7.76174 2.38634 8.69445 2 9.667 2H18.333ZM14 12H11C10.7348 12 10.4804 12.1054 10.2929 12.2929C10.1054 12.4804 10 12.7348 10 13C10 13.2652 10.1054 13.5196 10.2929 13.7071C10.4804 13.8946 10.7348 14 11 14H14C14.2652 14 14.5196 13.8946 14.7071 13.7071C14.8946 13.5196 15 13.2652 15 13C15 12.7348 14.8946 12.4804 14.7071 12.2929C14.5196 12.1054 14.2652 12 14 12ZM17 9H11C10.7348 9 10.4804 9.10536 10.2929 9.29289C10.1054 9.48043 10 9.73478 10 10C10 10.2652 10.1054 10.5196 10.2929 10.7071C10.4804 10.8946 10.7348 11 11 11H17C17.2652 11 17.5196 10.8946 17.7071 10.7071C17.8946 10.5196 18 10.2652 18 10C18 9.73478 17.8946 9.48043 17.7071 9.29289C17.5196 9.10536 17.2652 9 17 9ZM16 6H11C10.7348 6 10.4804 6.10536 10.2929 6.29289C10.1054 6.48043 10 6.73478 10 7C10 7.26522 10.1054 7.51957 10.2929 7.70711C10.4804 7.89464 10.7348 8 11 8H16C16.2652 8 16.5196 7.89464 16.7071 7.70711C16.8946 7.51957 17 7.26522 17 7C17 6.73478 16.8946 6.48043 16.7071 6.29289C16.5196 6.10536 16.2652 6 16 6Z" fill="white"/>
<path d="M3.517 6.39098C3.63112 6.32598 3.75692 6.28409 3.88723 6.2677C4.01754 6.25132 4.1498 6.26076 4.27646 6.29549C4.40312 6.33022 4.5217 6.38955 4.62542 6.47011C4.72915 6.55066 4.816 6.65086 4.881 6.76498C4.946 6.8791 4.98789 7.0049 5.00428 7.13521C5.02066 7.26552 5.01122 7.39778 4.97649 7.52444C4.94176 7.6511 4.88243 7.76968 4.80187 7.8734C4.72132 7.97713 4.62112 8.06398 4.507 8.12898C4.194 8.30698 4.001 8.63898 4 8.99698V18.997C4 19.545 4.452 19.997 5 19.997H15C15.284 19.997 15.405 19.909 15.626 19.511C15.7549 19.2792 15.9706 19.1081 16.2256 19.0353C16.4807 18.9626 16.7542 18.9941 16.986 19.123C17.2178 19.2519 17.3889 19.4676 17.4617 19.7226C17.5344 19.9777 17.5029 20.2512 17.374 20.483C16.828 21.463 16.094 21.997 15 21.997H5C3.348 21.997 2 20.649 2 18.997V8.99498C2.0005 8.46553 2.14111 7.94563 2.40754 7.4881C2.67398 7.03057 3.05676 6.65271 3.517 6.39098Z" fill="white"/>
</g>
<defs>
<clipPath id="clip0_739_15012">
<rect width="24" height="24" fill="white"/>
</clipPath>
</defs>
</svg>
