<svg width="22" height="22" viewBox="0 0 22 22" fill="none" xmlns="http://www.w3.org/2000/svg">
<g clip-path="url(#clip0_739_14859)">
<path d="M20.1667 12.3545V16.4997C20.1667 17.229 19.8769 17.9285 19.3612 18.4442C18.8455 18.9599 18.146 19.2497 17.4167 19.2497H4.58333C3.85399 19.2497 3.15452 18.9599 2.63879 18.4442C2.12307 17.9285 1.83333 17.229 1.83333 16.4997V12.3545L2.34025 12.6084C5.02691 13.9617 7.99335 14.6664 11.0016 14.6661C14.0098 14.6658 16.9761 13.9604 19.6625 12.6066L20.1667 12.3545ZM12.8333 1.83301C13.5627 1.83301 14.2622 2.12274 14.7779 2.63846C15.2936 3.15419 15.5833 3.85366 15.5833 4.58301V5.49967H17.4167C18.146 5.49967 18.8455 5.78941 19.3612 6.30513C19.8769 6.82086 20.1667 7.52033 20.1667 8.24967V10.3048L18.8403 10.9685C16.467 12.1647 13.8515 12.802 11.1939 12.8316C8.53641 12.8611 5.90736 12.2822 3.50808 11.139L2.915 10.8457L1.83333 10.3048V8.24967C1.83333 7.52033 2.12307 6.82086 2.63879 6.30513C3.15452 5.78941 3.85399 5.49967 4.58333 5.49967H6.41667V4.58301C6.41667 3.85366 6.7064 3.15419 7.22212 2.63846C7.73785 2.12274 8.43732 1.83301 9.16667 1.83301H12.8333ZM11 9.16634C10.7569 9.16634 10.5237 9.26292 10.3518 9.43483C10.1799 9.60673 10.0833 9.83989 10.0833 10.083C10.0827 10.2034 10.1058 10.3227 10.1514 10.4341C10.1969 10.5456 10.2639 10.647 10.3486 10.7325C10.4333 10.8181 10.534 10.8861 10.645 10.9327C10.756 10.9793 10.875 11.0037 10.9954 11.0043C11.1158 11.0049 11.2351 10.9817 11.3466 10.9362C11.458 10.8907 11.5594 10.8237 11.6449 10.739C11.7305 10.6543 11.7985 10.5536 11.8451 10.4426C11.8918 10.3316 11.9161 10.2126 11.9167 10.0922C11.9167 9.57701 11.506 9.16634 11 9.16634ZM12.8333 3.66634H9.16667C8.92355 3.66634 8.69039 3.76292 8.51849 3.93483C8.34658 4.10673 8.25 4.33989 8.25 4.58301V5.49967H13.75V4.58301C13.75 4.33989 13.6534 4.10673 13.4815 3.93483C13.3096 3.76292 13.0764 3.66634 12.8333 3.66634Z" fill="white"/>
</g>
<defs>
<clipPath id="clip0_739_14859">
<rect width="22" height="22" fill="white"/>
</clipPath>
</defs>
</svg>
