<svg width="24" height="24" viewBox="0 0 24 24" fill="none" xmlns="http://www.w3.org/2000/svg">
<g clip-path="url(#clip0_739_14910)">
<path d="M17 3.34001C18.5202 4.2177 19.7826 5.48009 20.6603 7.0003C21.538 8.5205 22 10.245 22 12.0003C22 13.7557 21.5379 15.4802 20.6602 17.0003C19.7825 18.5205 18.5201 19.7829 16.9999 20.6606C15.4797 21.5383 13.7552 22.0003 11.9998 22.0003C10.2445 22.0002 8.52002 21.5381 6.99984 20.6604C5.47965 19.7827 4.21729 18.5203 3.33963 17.0001C2.46198 15.4799 1.99996 13.7554 2 12L2.005 11.676C2.061 9.94901 2.56355 8.26598 3.46364 6.79101C4.36373 5.31604 5.63065 4.09947 7.14089 3.2599C8.65113 2.42033 10.3531 1.98641 12.081 2.00045C13.8089 2.01449 15.5036 2.47601 17 3.34001ZM12 6.00001C11.7348 6.00001 11.4804 6.10537 11.2929 6.29291C11.1054 6.48044 11 6.7348 11 7.00001V12C11 12.2652 11.1054 12.5196 11.2929 12.7071C11.4804 12.8947 11.7348 13 12 13H15.5C15.7652 13 16.0196 12.8947 16.2071 12.7071C16.3946 12.5196 16.5 12.2652 16.5 12C16.5 11.7348 16.3946 11.4804 16.2071 11.2929C16.0196 11.1054 15.7652 11 15.5 11H13V7.00001C13 6.75508 12.91 6.51868 12.7473 6.33564C12.5845 6.15261 12.3603 6.03567 12.117 6.00701L12 6.00001Z" fill="white"/>
</g>
<defs>
<clipPath id="clip0_739_14910">
<rect width="24" height="24" fill="white"/>
</clipPath>
</defs>
</svg>
